<svg width="36" height="35" viewBox="0 0 36 35" fill="none" xmlns="http://www.w3.org/2000/svg">
<path d="M25.1253 5.19168V2.91669C25.1253 2.31877 24.6153 1.82294 24.0003 1.82294C23.3853 1.82294 22.8753 2.31877 22.8753 2.91669V5.10419H13.1253V2.91669C13.1253 2.31877 12.6153 1.82294 12.0003 1.82294C11.3853 1.82294 10.8753 2.31877 10.8753 2.91669V5.19168C6.82534 5.55627 4.86034 7.90418 4.56034 11.3896C4.53034 11.8125 4.89034 12.1625 5.31034 12.1625H30.6903C31.1253 12.1625 31.4853 11.7979 31.4403 11.3896C31.1403 7.90418 29.1753 5.55627 25.1253 5.19168Z" fill="black"/>
<path opacity="0.4" d="M30 14.35C30.825 14.35 31.5 15.0062 31.5 15.8083V24.7916C31.5 29.1666 29.25 32.0833 24 32.0833H12C6.75 32.0833 4.5 29.1666 4.5 24.7916V15.8083C4.5 15.0062 5.175 14.35 6 14.35H30Z" fill="black"/>
<path d="M12.75 21.875C12.36 21.875 11.97 21.7146 11.685 21.4521C11.415 21.175 11.25 20.7959 11.25 20.4167C11.25 20.0375 11.415 19.6584 11.685 19.3813C12.105 18.9729 12.765 18.8417 13.32 19.075C13.515 19.1479 13.68 19.25 13.815 19.3813C14.085 19.6584 14.25 20.0375 14.25 20.4167C14.25 20.7959 14.085 21.175 13.815 21.4521C13.53 21.7146 13.14 21.875 12.75 21.875Z" fill="black"/>
<path d="M18 21.875C17.61 21.875 17.22 21.7146 16.935 21.4521C16.665 21.175 16.5 20.7959 16.5 20.4167C16.5 20.0375 16.665 19.6584 16.935 19.3813C17.07 19.25 17.235 19.1479 17.43 19.075C17.985 18.8417 18.645 18.9729 19.065 19.3813C19.335 19.6584 19.5 20.0375 19.5 20.4167C19.5 20.7959 19.335 21.175 19.065 21.4521C18.99 21.5104 18.915 21.5687 18.84 21.6271C18.75 21.6854 18.66 21.7292 18.57 21.7584C18.48 21.8021 18.39 21.8313 18.3 21.8459C18.195 21.8605 18.105 21.875 18 21.875Z" fill="black"/>
<path d="M23.25 21.875C22.86 21.875 22.47 21.7146 22.185 21.4521C21.915 21.175 21.75 20.7958 21.75 20.4167C21.75 20.0375 21.915 19.6583 22.185 19.3813C22.335 19.25 22.485 19.1479 22.68 19.075C22.95 18.9583 23.25 18.9291 23.55 18.9875C23.64 19.0021 23.73 19.0312 23.82 19.075C23.91 19.1041 24 19.1479 24.09 19.2063C24.165 19.2646 24.24 19.3229 24.315 19.3813C24.585 19.6583 24.75 20.0375 24.75 20.4167C24.75 20.7958 24.585 21.175 24.315 21.4521C24.24 21.5104 24.165 21.5687 24.09 21.6271C24 21.6854 23.91 21.7292 23.82 21.7583C23.73 21.8021 23.64 21.8313 23.55 21.8458C23.445 21.8604 23.34 21.875 23.25 21.875Z" fill="black"/>
<path d="M12.75 26.9792C12.555 26.9792 12.36 26.9355 12.18 26.8625C11.985 26.7896 11.835 26.6875 11.685 26.5563C11.415 26.2792 11.25 25.9 11.25 25.5209C11.25 25.1417 11.415 24.7625 11.685 24.4854C11.835 24.3542 11.985 24.2521 12.18 24.1792C12.45 24.0625 12.75 24.0333 13.05 24.0917C13.14 24.1063 13.23 24.1354 13.32 24.1792C13.41 24.2083 13.5 24.2521 13.59 24.3105C13.665 24.3688 13.74 24.4271 13.815 24.4854C14.085 24.7625 14.25 25.1417 14.25 25.5209C14.25 25.9 14.085 26.2792 13.815 26.5563C13.74 26.6146 13.665 26.6875 13.59 26.7312C13.5 26.7896 13.41 26.8334 13.32 26.8625C13.23 26.9063 13.14 26.9354 13.05 26.95C12.945 26.9646 12.855 26.9792 12.75 26.9792Z" fill="black"/>
<path d="M18 26.9792C17.61 26.9792 17.22 26.8187 16.935 26.5562C16.665 26.2792 16.5 25.9 16.5 25.5208C16.5 25.1417 16.665 24.7625 16.935 24.4854C17.49 23.9459 18.51 23.9459 19.065 24.4854C19.335 24.7625 19.5 25.1417 19.5 25.5208C19.5 25.9 19.335 26.2792 19.065 26.5562C18.78 26.8187 18.39 26.9792 18 26.9792Z" fill="black"/>
<path d="M23.25 26.9792C22.86 26.9792 22.47 26.8187 22.185 26.5562C21.915 26.2792 21.75 25.9 21.75 25.5208C21.75 25.1417 21.915 24.7625 22.185 24.4854C22.74 23.9459 23.76 23.9459 24.315 24.4854C24.585 24.7625 24.75 25.1417 24.75 25.5208C24.75 25.9 24.585 26.2792 24.315 26.5562C24.03 26.8187 23.64 26.9792 23.25 26.9792Z" fill="black"/>
</svg>
