<svg width="36" height="35" viewBox="0 0 36 35" fill="none" xmlns="http://www.w3.org/2000/svg">
<path d="M24 13.1104V29.6771C24 31.7917 22.44 32.6812 20.535 31.6604L14.64 28.4667C14.01 28.1312 12.99 28.1312 12.36 28.4667L6.465 31.6604C4.56 32.6812 3 31.7917 3 29.6771V13.1104C3 10.6167 5.09998 8.57501 7.66498 8.57501H19.335C21.9 8.57501 24 10.6167 24 13.1104Z" stroke="#292D32" stroke-width="1.5" stroke-linecap="round" stroke-linejoin="round"/>
<path d="M33 7.45208V24.0188C33 26.1334 31.44 27.0229 29.535 26.0021L24 22.9979V13.1104C24 10.6167 21.9 8.57503 19.335 8.57503H12V7.45208C12 4.95833 14.1 2.91669 16.665 2.91669H28.335C30.9 2.91669 33 4.95833 33 7.45208Z" stroke="#292D32" stroke-width="1.5" stroke-linecap="round" stroke-linejoin="round"/>
<path d="M10.5 17.5H16.5" stroke="#292D32" stroke-width="1.5" stroke-linecap="round" stroke-linejoin="round"/>
<path d="M13.5 20.4166V14.5833" stroke="#292D32" stroke-width="1.5" stroke-linecap="round" stroke-linejoin="round"/>
</svg>
