<svg width="36" height="35" viewBox="0 0 36 35" fill="none" xmlns="http://www.w3.org/2000/svg">
<path d="M18 22.9688C14.895 22.9688 12.375 20.5188 12.375 17.5C12.375 14.4813 14.895 12.0312 18 12.0312C21.105 12.0312 23.625 14.4813 23.625 17.5C23.625 20.5188 21.105 22.9688 18 22.9688ZM18 14.2188C16.14 14.2188 14.625 15.6917 14.625 17.5C14.625 19.3083 16.14 20.7812 18 20.7812C19.86 20.7812 21.375 19.3083 21.375 17.5C21.375 15.6917 19.86 14.2188 18 14.2188Z" fill="#292D32"/>
<path d="M22.815 32.3604C22.5 32.3604 22.185 32.3167 21.87 32.2438C20.94 31.9958 20.16 31.4271 19.665 30.625L19.485 30.3333C18.6 28.8458 17.385 28.8458 16.5 30.3333L16.335 30.6104C15.84 31.4271 15.06 32.0104 14.13 32.2438C13.185 32.4917 12.21 32.3604 11.385 31.8792L8.805 30.4354C7.89 29.925 7.23 29.0938 6.945 28.0875C6.675 27.0813 6.81 26.0458 7.335 25.1563C7.77 24.4125 7.89 23.7417 7.635 23.3188C7.38 22.8958 6.735 22.6479 5.85 22.6479C3.66 22.6479 1.875 20.9125 1.875 18.7833V16.2167C1.875 14.0875 3.66 12.3521 5.85 12.3521C6.735 12.3521 7.38 12.1042 7.635 11.6813C7.89 11.2583 7.785 10.5875 7.335 9.84376C6.81 8.95418 6.675 7.90418 6.945 6.91251C7.215 5.90626 7.875 5.07501 8.805 4.56459L11.4 3.12084C13.095 2.14376 15.33 2.71251 16.35 4.38959L16.53 4.68126C17.415 6.16876 18.63 6.16876 19.515 4.68126L19.68 4.40418C20.7 2.71251 22.935 2.14376 24.645 3.13543L27.225 4.57918C28.14 5.08959 28.8 5.92084 29.085 6.92709C29.355 7.93334 29.22 8.96876 28.695 9.85835C28.26 10.6021 28.14 11.2729 28.395 11.6958C28.65 12.1188 29.295 12.3667 30.18 12.3667C32.37 12.3667 34.155 14.1021 34.155 16.2313V18.7979C34.155 20.9271 32.37 22.6625 30.18 22.6625C29.295 22.6625 28.65 22.9104 28.395 23.3333C28.14 23.7563 28.245 24.4271 28.695 25.1708C29.22 26.0604 29.37 27.1104 29.085 28.1021C28.815 29.1083 28.155 29.9396 27.225 30.45L24.63 31.8938C24.06 32.2 23.445 32.3604 22.815 32.3604ZM18 26.9646C19.335 26.9646 20.58 27.7813 21.435 29.225L21.6 29.5021C21.78 29.8083 22.08 30.0271 22.44 30.1146C22.8 30.2021 23.16 30.1583 23.46 29.9833L26.055 28.525C26.445 28.3063 26.745 27.9417 26.865 27.5042C26.985 27.0667 26.925 26.6146 26.7 26.2354C25.845 24.8063 25.74 23.3333 26.4 22.2104C27.06 21.0875 28.425 20.4458 30.135 20.4458C31.095 20.4458 31.86 19.7021 31.86 18.7688V16.2021C31.86 15.2833 31.095 14.525 30.135 14.525C28.425 14.525 27.06 13.8833 26.4 12.7604C25.74 11.6375 25.845 10.1646 26.7 8.73543C26.925 8.35626 26.985 7.90418 26.865 7.46668C26.745 7.02918 26.46 6.67918 26.07 6.44584L23.475 5.00209C22.83 4.62293 21.975 4.84168 21.585 5.48334L21.42 5.76043C20.565 7.20418 19.32 8.02084 17.985 8.02084C16.65 8.02084 15.405 7.20418 14.55 5.76043L14.385 5.46876C14.01 4.85626 13.17 4.63751 12.525 5.00209L9.93 6.46043C9.54 6.67918 9.24 7.04376 9.12 7.48126C9 7.91876 9.06 8.37084 9.285 8.75001C10.14 10.1792 10.245 11.6521 9.585 12.775C8.925 13.8979 7.56 14.5396 5.85 14.5396C4.89 14.5396 4.125 15.2833 4.125 16.2167V18.7833C4.125 19.7021 4.89 20.4604 5.85 20.4604C7.56 20.4604 8.925 21.1021 9.585 22.225C10.245 23.3479 10.14 24.8208 9.285 26.25C9.06 26.6292 9 27.0813 9.12 27.5188C9.24 27.9563 9.525 28.3063 9.915 28.5396L12.51 29.9833C12.825 30.1729 13.2 30.2167 13.545 30.1292C13.905 30.0417 14.205 29.8083 14.4 29.5021L14.565 29.225C15.42 27.7958 16.665 26.9646 18 26.9646Z" fill="#292D32"/>
</svg>
