<svg width="40" height="40" viewBox="0 0 40 40" fill="none" xmlns="http://www.w3.org/2000/svg">
<path d="M34.7168 13.35L23.8001 4.61662C21.6668 2.91662 18.3334 2.89995 16.2168 4.59995L5.3001 13.35C3.73343 14.6 2.78343 17.0999 3.11677 19.0666L5.21677 31.6333C5.7001 34.45 8.31677 36.6666 11.1668 36.6666H28.8334C31.6501 36.6666 34.3168 34.4 34.8001 31.6166L36.9001 19.05C37.2001 17.1 36.2501 14.6 34.7168 13.35ZM21.2501 30C21.2501 30.6833 20.6834 31.25 20.0001 31.25C19.3168 31.25 18.7501 30.6833 18.7501 30V24.9999C18.7501 24.3166 19.3168 23.7499 20.0001 23.7499C20.6834 23.7499 21.2501 24.3166 21.2501 24.9999V30Z" fill="#5F33E1"/>
</svg>
